<?xml version="1.0" encoding="UTF-8"?>
<svg data-bbox="23 23 153.999 154" viewBox="0 0 200 200" height="200" width="200" xmlns="http://www.w3.org/2000/svg" data-type="color">
    <g>
        <path d="M100 76.091c-13.184 0-23.909 10.726-23.909 23.909S86.816 123.909 100 123.909s23.909-10.726 23.909-23.909S113.184 76.091 100 76.091zm0 39.818c-8.772 0-15.909-7.137-15.909-15.909S91.228 84.091 100 84.091s15.909 7.137 15.909 15.909-7.137 15.909-15.909 15.909zm59.728-33.182h-1.113a6.947 6.947 0 0 1-6.06-3.597 3.993 3.993 0 0 0-.317-1.186c-1.153-2.614-.608-5.623 1.363-7.638l.371-.372.035-.035a17.156 17.156 0 0 0 5.052-12.217 17.157 17.157 0 0 0-5.036-12.181l-.039-.04a17.163 17.163 0 0 0-12.207-5.052h-.01a17.158 17.158 0 0 0-12.208 5.062l-.368.369c-2.043 1.998-5.049 2.545-7.706 1.373a6.941 6.941 0 0 1-4.212-6.344v-.597C117.272 30.749 109.524 23 100 23s-17.272 7.749-17.272 17.273v1.112a6.945 6.945 0 0 1-3.597 6.06 4.03 4.03 0 0 0-1.187.317c-2.615 1.154-5.623.608-7.631-1.355l-.397-.398-.045-.044c-6.736-6.7-17.669-6.687-24.392.035l-.012.011-.006.006c-6.73 6.739-6.725 17.697.014 24.427l.366.365a6.919 6.919 0 0 1 1.39 7.666 4.432 4.432 0 0 0-.095.235c-.992 2.696-3.488 4.481-6.267 4.548h-.598C30.748 83.258 23 91.007 23 100.531c0 9.524 7.748 17.273 17.272 17.273h1.113c2.771.011 5.268 1.664 6.377 4.251 1.153 2.614.608 5.623-1.363 7.638l-.371.372-.035.035a17.156 17.156 0 0 0-5.052 12.217 17.157 17.157 0 0 0 5.036 12.181l.039.04a17.163 17.163 0 0 0 12.207 5.052h.01a17.158 17.158 0 0 0 12.208-5.062l.368-.369a6.92 6.92 0 0 1 7.666-1.39c.077.034.155.065.234.094 2.696.992 4.482 3.489 4.548 6.267v.597c0 9.524 7.749 17.273 17.273 17.273s17.272-7.749 17.272-17.273v-1.112c.011-2.772 1.665-5.269 4.252-6.377 2.616-1.153 5.624-.608 7.631 1.355l.397.398.045.044c6.738 6.7 17.671 6.687 24.392-.036l.012-.011.006-.006c6.73-6.739 6.725-17.697-.014-24.427l-.366-.365a6.919 6.919 0 0 1-1.39-7.666l.018-.04a6.939 6.939 0 0 1 6.344-4.211h.598c9.524 0 17.272-7.749 17.272-17.273s-7.747-17.273-17.271-17.273zm0 26.546h-.613a14.939 14.939 0 0 0-13.673 9.041c-2.471 5.619-1.295 12.082 3.03 16.504l.398.398c3.617 3.613 3.621 9.496.008 13.114l-.011.01c-3.613 3.618-9.498 3.62-13.113.007l-.033-.032-.405-.407c-4.396-4.298-10.868-5.471-16.45-3.007a14.952 14.952 0 0 0-9.062 13.698v1.128c0 5.113-4.159 9.273-9.272 9.273s-9.273-4.16-9.273-9.273l-.001-.69c-.143-6.136-3.933-11.476-9.667-13.638-5.594-2.415-12.01-1.228-16.404 3.07l-.401.401a9.21 9.21 0 0 1-6.555 2.719h-.006a9.21 9.21 0 0 1-6.528-2.688l-.034-.035a9.209 9.209 0 0 1-2.72-6.556 9.21 9.21 0 0 1 2.688-6.534l.037-.036.425-.426c4.299-4.394 5.473-10.867 3.008-16.452a14.948 14.948 0 0 0-13.697-9.06h-1.129c-5.113 0-9.272-4.16-9.272-9.273 0-5.113 4.159-9.272 9.272-9.272l.691-.001c6.136-.144 11.475-3.934 13.637-9.667 2.415-5.596 1.229-12.01-3.072-16.408l-.398-.398c-3.617-3.613-3.621-9.496-.008-13.114l.011-.01c3.612-3.618 9.497-3.62 13.113-.007l.033.032.405.407c4.184 4.091 10.249 5.353 15.677 3.321.449-.03.891-.136 1.305-.314A14.952 14.952 0 0 0 90.731 41.4v-1.128C90.728 35.16 94.887 31 100 31s9.272 4.16 9.272 9.273v.613c.024 5.962 3.581 11.333 9.021 13.665 5.625 2.481 12.097 1.308 16.521-3.02l.401-.401a9.21 9.21 0 0 1 6.555-2.719h.006a9.21 9.21 0 0 1 6.528 2.688l.034.035a9.209 9.209 0 0 1 2.72 6.556 9.21 9.21 0 0 1-2.688 6.534l-.037.036-.425.426c-4.093 4.184-5.354 10.252-3.322 15.678.031.449.137.89.314 1.305a14.948 14.948 0 0 0 13.697 9.06h1.129c5.113 0 9.272 4.16 9.272 9.273s-4.157 9.271-9.27 9.271z" fill="#000001" data-color="1"/>
    </g>
</svg>
