<svg data-bbox="35 32.874 130.007 134.126" viewBox="0 0 200 200" height="200" width="200" xmlns="http://www.w3.org/2000/svg" data-type="tint">
    <g>
        <path d="M147.7 131.6c-.2-.1-.4-.1-.5-.1-1.5-.4-3-.6-4.5-.6h-13.1c2.8-6.7 7.3-13.7 11.9-21 4.9-7.7 10-15.6 14-24.3 16.9-36.9 6.2-51.3 5.8-51.9l-.1-.1-.2-.2c-.1-.1-.1-.1-.2-.1s-.1-.1-.2-.1-.1-.1-.2-.1-.1-.1-.2-.1-.1 0-.2-.1H69.8c-.6-.1-1.2.1-1.6.4-1.1.8-1.3 2.3-.6 3.4.1.1 8 12.4-6.3 47.1-4 9.7-9.4 16.9-14.2 23.2-6.5 8.6-12.1 16-12.1 26.5 0 21.7 13.5 32.5 14.1 33 .4.3.9.5 1.5.5h92.2c9.8 0 17.8-8 17.8-17.9-.1-8.2-5.4-15.3-12.9-17.5zm-13 12.4c0 2.8.7 5.3 1.9 7.3H128c-1.4-3.4-1.8-7.3-1.1-11.7.2-1.3.5-2.6.9-4h9.9c-1.8 2.3-3 5.3-3 8.4zm-10.8-11.8c0 .1-.1.2-.1.3-.8 2.3-1.3 4.3-1.6 6.4-1.9 11.7 3 18.7 7.5 22.4.2.2.5.4.7.6h-79c-1-.9-3.3-3.2-5.5-6.8-2.8-4.4-6.1-11.8-6.1-21.9 0-8.8 4.9-15.3 11.1-23.5 5-6.6 10.6-14 14.8-24.3 11-26.7 9.6-41.3 7.5-47.9H158c1.9 3.8 6.3 17.2-6.9 46-3.8 8.4-8.8 16.2-13.6 23.7-5.5 8.7-10.8 16.9-13.6 25zm20.8 24h1c1.3 0 2.4-1.1 2.4-2.4s-1.1-2.4-2.4-2.4c-1.7 0-3.1-.5-4.2-1.6-1.3-1.3-2-3.3-1.9-5.7 0-4.2 3.1-7.7 7-7.8 5.4 1.7 9.2 6.8 9.2 12.6 0 7.2-5.8 13.1-13 13.1h-2c-1.1-.3-5.8-1.8-9.5-5.7l13.4-.1z" fill="#040404"/>
    </g>
</svg>
