<?xml version="1.0" encoding="UTF-8" standalone="no"?>
<svg
   xmlns:dc="http://purl.org/dc/elements/1.1/"
   xmlns:cc="http://creativecommons.org/ns#"
   xmlns:rdf="http://www.w3.org/1999/02/22-rdf-syntax-ns#"
   xmlns:svg="http://www.w3.org/2000/svg"
   xmlns="http://www.w3.org/2000/svg"
   viewBox="0 0 907.08661 340.1575"
   id="svg7"
   height="340.1575"
   width="907.08661"
   version="1.1">
  <metadata
     id="metadata13">
    <rdf:RDF>
      <cc:Work
         rdf:about="">
        <dc:format>image/svg+xml</dc:format>
        <dc:type
           rdf:resource="http://purl.org/dc/dcmitype/StillImage" />
      </cc:Work>
    </rdf:RDF>
  </metadata>
  <defs
     id="defs11" />
  <g
     id="Layer1000">
    <path
       id="path2"
       style="fill:#0a5baa;fill-rule:evenodd;stroke:#0a5baa;stroke-width:0.56690001;stroke-linecap:butt;stroke-linejoin:miter;stroke-dasharray:none"
       d="M 0,0 V 340.1575 H 907.0866 V 0 Z" />
    <path
       id="path4"
       style="fill:#ffffff;fill-rule:evenodd"
       d="m 52.8318,170.151 c 21.0864,33.0937 80.828,49.1434 115.3089,59.955 43.5217,13.6466 90.9791,24.2799 138.7188,31.1559 75.4883,10.8732 148.9629,8.3098 224.6541,5.4715 -3.6524,-5.4542 -17.1022,-7.6247 -31.208,-8.4739 C 448.0251,255.1113 396.04,252.5326 344.3017,243.9454 286.2581,234.3118 229.6446,220.8447 173.8885,202.3583 153.6344,195.643 96.6464,171.3025 90.1242,149.6792 c -3.4311,-11.3751 4.9861,-25.9013 16.3893,-28.946 -4.2301,-5.7739 -21.3089,-2.3156 -26.4265,-0.684 -21.2259,6.7675 -41.8655,27.1693 -27.2552,50.1018 z M 185.5137,93.7332 c 6.7957,1.5835 11.7615,3.7267 20.9602,4.04 8.4257,0.2868 15.5214,-1.0398 25.0395,-1.0398 h 35.0003 c 25.7567,0 68.9332,3.6462 87.7569,19.1687 14.7847,12.1927 9.6248,30.6063 -0.5686,44.0195 -4.9635,6.5328 -9.6543,10.7258 -17.5054,14.4947 -15.5922,7.4843 -34.9979,6.317 -57.5166,6.4043 l 30.8335,-60.0874 h -23 c -16.5475,0 -26.0563,7.5357 -31.625,18.2543 l -29.3672,56.5259 40.9924,1.2198 h 39.9999 c 22.5003,0 49.97,-7.0038 65.3347,-14.665 14.5644,-7.2624 33.6653,-25.8503 33.6653,-46.3349 0,-27.1049 -24.7011,-42.084 -54.6987,-49.5799 -34.0926,-8.5193 -71.3486,-7.6907 -106.0997,-4.0167 -25.1319,2.6578 -54.0904,7.1538 -59.2015,11.5965 z m 458.2817,69.484 c 7.8845,-13.9983 34.3919,-29.484 50.7183,-29.484 h 7.9999 c -3.3653,14.4454 -32.2548,39.5991 -50.5029,42.6866 -9.6695,1.6359 -12.7,-5.2412 -8.2153,-13.2026 z m -31.034,26.8362 c 4.2982,4.6298 12.2153,6.6798 19.7524,6.6798 18.9861,0 34.5948,-12.3531 46.9162,-19.6903 l -8.9164,17.6905 h 16.9999 c 21.0462,0 29.1796,-16.3565 36.3348,-30.6652 4.7778,-9.5542 20.7459,-37.1143 22.7957,-44.7914 -21.4866,-0.6384 -38.026,-1.1339 -53.3455,-1.044 -10.842,0.0638 -21.5858,2.4709 -34.6601,7.6252 -14.4399,5.5774 -42.7354,24.2206 -48.1992,42.7759 -1.7716,6.02 -2.1084,16.6479 2.3222,21.4195 z m 183.7522,-54.3201 7.8415,-15.2183 -10.4601,-0.006 c -20.0909,0 -29.907,7.6139 -36.2271,19.8802 l -28.0018,54.3445 h 18.8476 c 10.5194,0.1692 20.9818,-6.5651 24.7569,-13.8915 l 9.0579,-17.5785 c 5.2254,-10.1412 21.9832,-21.53 33.1852,-21.53 6.4431,0 7.6637,2.1895 4.6451,7.9039 l -23.8238,45.0961 h 15.1787 c 14.9888,0 26.9393,-8.7146 32.3493,-18.6506 l 13.6831,-26.8997 c 11.7978,-23.1936 -8.4379,-32.9558 -26.1133,-30.1813 -13.5644,2.1294 -23.9897,8.8419 -34.9192,16.7315 z m -259.7202,20.1963 c 2.28,-8.5388 24.2541,-20.8156 36.6551,-20.8156 3.905,0 12.6216,-0.1086 8.0453,6.5653 -7.215,10.523 -32.8714,14.2503 -44.7004,14.2503 z m -43.2799,17.8036 c 0,16.7003 25.5765,23 44.0002,23 21.513,0 52.4951,-6.9165 54,-24.9999 -8.5201,1.9848 -15.8323,5.9086 -25.0707,7.8526 -7.1481,1.504 -15.6348,1.7328 -22.9431,1.0006 -6.8743,-0.6888 -12.3893,-3.822 -11.2039,-9.8549 19.0483,0 35.5496,-2.8083 49.3311,-7.8849 11.1103,-4.0927 30.8865,-14.5987 30.8865,-28.1134 v -1.9999 c 0,-9.7801 -11.6713,-14 -21.9999,-14 h -17 c -32.5556,0 -80.0002,22.754 -80.0002,54.9998 z m -31.5893,-37.3451 8.9822,-16.4406 h -13 c -15.7615,0.1964 -28.9936,8.1388 -34.0234,17.8339 l -29.5481,56.952 h 20.1787 c 11.452,0 18.0369,-5.8536 24.09,-13.0853 4.6403,-5.5443 7.5444,-13.5199 12.515,-19.9301 9.8254,-12.6715 24.3017,-23.0366 52.247,-23.0811 l 12.4753,-19.4058 c -24.0296,-0.7857 -35.752,6.2881 -53.9167,17.157 z" />
  </g>
</svg>
