<svg id="Capa_1" data-name="Capa 1" xmlns="http://www.w3.org/2000/svg" viewBox="0 0 122.08 122"><path d="M66.2,47.4a7.7,7.7,0,0,1,6.7,3.7C78.2,59,83.3,66.4,86.1,71.5a9.45,9.45,0,0,1-1.2,10.1c-2.7,3-5.1,3.8-6.5,6a9.21,9.21,0,0,0-.3,8.8c2.2,4.7,4.9,8.5,10.8,14.5s9.9,8.6,14.5,10.8a9.57,9.57,0,0,0,8.9-.2c2.2-1.4,3-3.8,6-6.5a8.88,8.88,0,0,1,5.9-2.2,10.52,10.52,0,0,1,4.2.9c5.1,2.8,12.5,7.9,20.4,13.2,5.5,3.7,3.5,9.5,2.7,11.3s-4.8,7.8-13.4,12.4a20.67,20.67,0,0,1-9.3,2c-11.9,0-30.4-7.3-52.4-29.2C47.7,94.5,44.2,71.6,49.3,61.8c4.5-8.6,10.5-12.6,12.4-13.4a11.09,11.09,0,0,1,4.5-1Zm0-8.4a19.75,19.75,0,0,0-7.9,1.7c-3.5,1.5-11.1,6.9-16.5,17.2C35,70.8,38.5,97.3,70.6,129.3,98.2,156.9,119,161,128.9,161a28.86,28.86,0,0,0,13.2-2.9c10.3-5.4,15.7-12.9,17.2-16.5,3.6-8.4,1.3-16.8-5.8-21.6l-3.6-2.4c-6.6-4.4-12.8-8.6-17.4-11.1a16.59,16.59,0,0,0-8.2-2,16.9,16.9,0,0,0-11.5,4.3,31.76,31.76,0,0,0-4.3,4.8,5.55,5.55,0,0,1-.6.8h0a2.54,2.54,0,0,1-.7-.2c-3.5-1.6-6.6-3.7-12.2-9.2s-7.5-8.7-9.2-12.2a1.23,1.23,0,0,1-.2-.7c.2-.2.6-.4.8-.6a24.36,24.36,0,0,0,4.8-4.3,17.94,17.94,0,0,0,2.3-19.7C90.9,62.9,86.7,56.6,82.3,50c-.8-1.1-1.6-2.3-2.3-3.5A16.11,16.11,0,0,0,66.2,39Z" transform="translate(-38.9 -39)"/></svg>