<svg id="Capa_1" data-name="Capa 1" xmlns="http://www.w3.org/2000/svg" viewBox="0 0 140 140"><path d="M132.7,112c-1.7-.9-10-4.9-11.5-5.4s-2.6-.9-3.8.9-4.4,5.4-5.3,6.6-1.9,1.2-3.7.4-7.2-2.6-13.6-8.2a49.55,49.55,0,0,1-9.4-11.6c-1-1.7-.1-2.6.8-3.4a26.45,26.45,0,0,0,2.5-3,11.65,11.65,0,0,0,1.7-2.8,3.17,3.17,0,0,0-.2-3c-.5-.9-3.8-9-5.2-12.4s-2.8-2.8-3.8-2.8-2.1-.2-3.2-.2a6.1,6.1,0,0,0-4.5,2.1,18.67,18.67,0,0,0-5.9,13.9c0,8.2,6,16.2,6.8,17.3s11.6,18.5,28.8,25.3,17.2,4.5,20.2,4.2,10-4,11.4-7.9,1.4-7.3,1-7.9c-.3-.9-1.4-1.3-3.1-2.1Z" transform="translate(-30 -30)"/><path d="M101.2,30C63.3,30,32.5,60.5,32.5,98.2a67.1,67.1,0,0,0,9.9,35.2L30,170l38.1-12.1a68.83,68.83,0,0,0,33.2,8.5c37.9,0,68.7-30.5,68.7-68.2S139.1,30,101.2,30Zm0,125.5a58.5,58.5,0,0,1-31.8-9.4l-22.1,7.1,7.2-21.3a56.79,56.79,0,0,1-11-33.6C43.5,66.6,69.4,41,101.3,41S159,66.7,159,98.2,133.1,155.5,101.2,155.5Z" transform="translate(-30 -30)"/></svg>